<?xml version="1.0" standalone="no"?>
<!DOCTYPE svg PUBLIC "-//W3C//DTD SVG 20010904//EN"
 "http://www.w3.org/TR/2001/REC-SVG-20010904/DTD/svg10.dtd">
<svg version="1.0" xmlns="http://www.w3.org/2000/svg"
 width="260.000000pt" height="260.000000pt" viewBox="0 0 260.000000 260.000000"
 preserveAspectRatio="xMidYMid meet">
<metadata>
Created by potrace 1.11, written by Peter Selinger 2001-2013
</metadata>
<g transform="translate(0.000000,260.000000) scale(0.100000,-0.100000)"
fill="#000000" stroke="none">
<path d="M82 2515 c-11 -17 -8 -2434 3 -2438 5 -2 557 -3 1225 -3 l1215 1 0
1225 0 1225 -1218 0 c-804 0 -1221 -3 -1225 -10z m773 -485 c156 -35 281 -165
310 -323 l7 -35 -94 0 -93 0 -27 56 c-45 94 -125 131 -257 119 -133 -12 -211
-99 -211 -234 0 -126 89 -209 233 -219 136 -9 224 -37 303 -96 177 -135 199
-447 44 -607 -106 -109 -255 -153 -425 -126 -59 9 -160 53 -209 90 -48 37
-102 120 -121 188 -26 90 -24 92 79 92 l89 0 19 -45 c40 -93 117 -140 231
-140 149 0 249 88 250 220 1 93 -52 173 -141 212 -23 11 -80 23 -125 28 -97
11 -145 24 -211 57 -243 123 -284 458 -80 656 50 48 164 105 229 113 28 3 51
7 53 9 6 5 100 -4 147 -15z m1025 -41 c185 -9 357 -116 409 -253 41 -110 31
-257 -24 -352 -85 -145 -253 -210 -544 -209 -129 1 -151 -2 -152 -15 -1 -8 -2
-146 -3 -307 0 -160 -3 -294 -6 -296 -8 -8 -29 -9 -112 -8 l-77 1 2 407 2 408
128 0 c110 -1 127 2 122 15 -4 8 -62 103 -130 210 l-124 195 0 102 0 102 62 3
c69 3 361 1 447 -3z"/>
<path d="M1594 1799 c-2 -4 4 -17 14 -30 9 -14 22 -33 29 -44 6 -11 60 -97
118 -191 l107 -171 47 9 c124 23 212 101 216 194 6 119 -66 200 -201 225 -64
12 -323 18 -330 8z"/>
</g>
</svg>
