<svg xmlns="http://www.w3.org/2000/svg" viewBox="0 0 487 61"><defs><style>.cls-1{fill:#ff5015;}.cls-2{fill:#f63;}</style></defs><title>soql-parser-js-logo</title><g id="Layer_2" data-name="Layer 2"><g id="Layer_1-2" data-name="Layer 1"><path d="M209.48,13H219c3.43,0,9.92,1.62,9.92,7.76,0,4.22-3.15,7-8.65,7.75l-.95.13Z"/><path class="cls-1" d="M219,14.45s8.42,0,8.42,6.26c0,4.9-5.11,6-7.34,6.27l-7.85-12.53H219m0-3H206.77L209.65,16l7.85,12.53,1,1.63,1.9-.25c6.24-.8,10-4.26,10-9.24,0-3.87-2.19-6.81-6.16-8.29a16.3,16.3,0,0,0-5.26-1Z"/><path d="M111.36,13.83l1.81-.87a18,18,0,0,1,7.92-1.81c9.95,0,18.35,8.63,18.35,18.85a20.85,20.85,0,0,1-2.2,9.43l-1,1.86Z"/><path class="cls-1" d="M121.09,12.65c9.36,0,16.85,8.06,16.85,17.35a19.52,19.52,0,0,1-2,8.72L113.82,14.31a16.57,16.57,0,0,1,7.27-1.66m0-3a19.51,19.51,0,0,0-8.58,2l-3.6,1.74,2.69,3,22.1,24.41,2.84,3.13,2-3.71A22.19,22.19,0,0,0,140.94,30c0-11-9.09-20.35-19.85-20.35Z"/><polygon points="245.5 44.82 253.73 21.28 261.96 44.82 245.5 44.82"/><path class="cls-1" d="M253.73,25.82l6.12,17.5H247.61l6.12-17.5m0-9.08-2.83,8.09-6.12,17.5-1.4,4h20.7l-1.4-4-6.12-17.5-2.83-8.09Z"/><path d="M67.19,34.82A11.87,11.87,0,1,1,79.06,23,11.89,11.89,0,0,1,67.19,34.82Z"/><path class="cls-1" d="M67.19,12.58A10.37,10.37,0,1,1,56.82,23,10.33,10.33,0,0,1,67.19,12.58m0-3A13.37,13.37,0,1,0,80.56,23,13.38,13.38,0,0,0,67.19,9.58Z"/><path d="M291.09,13h9.48c3.43,0,9.93,1.62,9.93,7.76,0,4.33-3.26,7.23-8.7,7.76l-.93.09Z"/><path class="cls-1" d="M300.57,14.45s8.43,0,8.43,6.26c0,5-5.12,6.05-7.35,6.27L293.8,14.45h6.77m0-3H288.38L291.26,16l7.85,12.53,1,1.57,1.85-.18c6.2-.6,10.06-4.14,10.06-9.25,0-3.87-2.19-6.81-6.17-8.29a16.3,16.3,0,0,0-5.26-1Z"/><path d="M121.09,49.07c-10.46,0-18.35-8.2-18.35-19.07a19.74,19.74,0,0,1,3.38-11.09l1.08-1.52,25.27,27.83-1.5,1A18.57,18.57,0,0,1,121.09,49.07Z"/><path class="cls-1" d="M107.34,19.78l22.82,25.13a17,17,0,0,1-9.07,2.66c-9.29,0-16.85-7.13-16.85-17.57a18.34,18.34,0,0,1,3.1-10.22M107.05,15l-2.16,3a21.41,21.41,0,0,0-3.65,12c0,11.73,8.54,20.57,19.85,20.57a20.12,20.12,0,0,0,10.69-3.13l3-1.92-2.39-2.63L109.56,17.76,107.05,15Z"/><path d="M422.11,13h9.48c3.43,0,9.93,1.62,9.93,7.76,0,4.33-3.26,7.23-8.7,7.76l-.93.09Z"/><path class="cls-1" d="M431.59,14.45s8.43,0,8.43,6.26c0,5-5.12,6.05-7.35,6.27l-7.85-12.53h6.77m0-3H419.4L422.28,16l7.85,12.53,1,1.57L433,30c6.2-.6,10.06-4.14,10.06-9.25,0-3.87-2.19-6.81-6.17-8.29a16.3,16.3,0,0,0-5.26-1Z"/><path d="M1.5,59.5V1.5h484v58ZM331.5,44c.87,8.34,7.78,11.53,14.22,11.69,6.8,0,14.16-4.2,14.16-13.41,0-5.55-2.67-10-7.33-12.1a17.57,17.57,0,0,0-6.87-1.52c-4.39,0-8.84-2.72-8.84-7.91s3.55-8.48,8.84-8.48c4.57,0,7.77,2.33,8.54,6h5.41c-.84-6.73-6.48-11.47-13.95-11.47-6.91,0-14.26,4.88-14.26,13.91a12,12,0,0,0,7.34,11.53,17.71,17.71,0,0,0,6.92,1.52c4.29.18,8.85,3.47,8.85,8.48,0,4.55-3.8,8-8.85,8-4.49,0-7.86-2.51-8.66-6.26Zm116.83,11L435,33.63l1.93-.54c4.56-1.27,10-4.45,10-12.38,0-13-14.72-13.19-15.35-13.19H416.31V14l9.23,14.54h-9.23V54.93h5.43v-21h7.16l13.1,21Zm-44.92,0V49.5h-25.2V33.9h21V28.55h-21V13h25.2V7.52H372.79V54.93Zm-86.1,0L304,33.63l1.93-.54c4.56-1.27,10-4.45,10-12.38,0-13-14.72-13.19-15.35-13.19H285.29V14l9.22,14.54h-9.22V54.93h5.43v-21h7.16l13.1,21Zm-45.61,0-18-46.2-17.9,46.2h5.84l2.16-5.84h19.79l2.23,5.84Zm-62.59,0v-21H219c.62,0,15.28-.19,15.28-13.19S219.58,7.52,219,7.52H203.68V14l9.22,14.54h-9.22V54.93ZM8.69,42.88c.87,8.34,7.78,11.53,14.22,11.69,6.8,0,14.16-4.2,14.16-13.41,0-5.55-2.67-10-7.33-12.1a17.77,17.77,0,0,0-6.87-1.52c-4.39,0-8.84-2.71-8.84-7.91s3.55-8.48,8.84-8.48c4.56,0,7.77,2.33,8.53,6h5.42C36,10.46,30.34,5.72,22.87,5.72,16,5.72,8.6,10.6,8.6,19.63A12,12,0,0,0,16,31.16a17.68,17.68,0,0,0,6.92,1.52c4.29.18,8.85,3.47,8.85,8.48,0,4.55-3.81,8-8.85,8-4.49,0-7.87-2.51-8.67-6.26ZM121.09,5.72C107.76,5.72,97.32,16.39,97.32,30s10.44,24.5,23.77,24.5a23.34,23.34,0,0,0,14-4.6l1.07-.79,5.07,5.28,3.94-3.71L140,45.19l.7-1A25.56,25.56,0,0,0,144.94,30C144.94,16.39,134.46,5.72,121.09,5.72Zm61.69,48.13V48.42H164.13v-42h-5.42V53.85Zm-100.67,0V48.5H51.84v5.35ZM67.19,5.72A17.23,17.23,0,1,0,84.42,23,17.25,17.25,0,0,0,67.19,5.72Zm124.63,27.5v-10h-10v10Z"/><path class="cls-1" d="M484,3V58H3V3H484M121.09,56A24.82,24.82,0,0,0,136,51.1l5.18,5.4,6.12-5.76-5.4-5.69a26.87,26.87,0,0,0,4.54-15c0-14-10.51-25.78-25.35-25.78S95.82,16,95.82,30c0,14.84,11.3,26,25.27,26M67.19,41.67A18.73,18.73,0,1,0,48.47,23,18.78,18.78,0,0,0,67.19,41.67m-44.32,6c-3.74,0-7.2-2.08-7.34-6.26H7.1c.15,9.43,7.06,14.47,15.77,14.69,8.14,0,15.7-5.26,15.7-14.91,0-6-2.88-11-8.21-13.46A19,19,0,0,0,22.87,26c-3.74,0-7.34-2.23-7.34-6.41,0-4.68,3.38-7,7.34-7s7.06,1.87,7.2,6h8.36c-.15-8.57-6.84-14.48-15.56-14.48C14.74,4.22,7.1,10.06,7.1,19.63a13.49,13.49,0,0,0,8.21,12.89,19.26,19.26,0,0,0,7.56,1.66c3.39.14,7.35,2.74,7.35,7,0,4-3.46,6.48-7.35,6.48m210.77,8.79h9.07l2.16-5.84h17.72l2.23,5.84h9.07L253.73,4.58,233.64,56.43M157.2,55.35h27.08V46.92H165.63v-42H157.2V55.35m188.48-6.63c-3.74,0-7.2-2.09-7.34-6.26h-8.42c.14,9.43,7.05,14.47,15.76,14.69,8.14,0,15.7-5.26,15.7-14.91,0-6-2.88-11-8.21-13.46a19,19,0,0,0-7.49-1.66c-3.74,0-7.34-2.23-7.34-6.41,0-4.68,3.38-7,7.34-7s7.06,1.87,7.21,6h8.35c-.15-8.56-6.84-14.47-15.56-14.47-8.13,0-15.76,5.83-15.76,15.41a13.49,13.49,0,0,0,8.2,12.89,19.29,19.29,0,0,0,7.56,1.66c3.39.14,7.35,2.73,7.35,7,0,4-3.46,6.48-7.35,6.48m69.13,7.71h8.43v-21h4.82l13.11,21H451L437.35,34.54c4.9-1.37,11.09-4.9,11.09-13.83C448.44,6,431.59,6,431.59,6H414.81v8.43l8,12.6h-8V56.43m-43.53,0h33.63V48h-25.2V35.4h21V27.05h-21V14.45h25.2V6H371.28V56.43m-87.49,0h8.43v-21H297l13.11,21H320L306.33,34.54c4.9-1.37,11.09-4.9,11.09-13.83C317.42,6,300.57,6,300.57,6H283.79v8.43l8,12.6h-8V56.43m-81.61,0h8.43v-21H219s16.78,0,16.78-14.69S219,6,219,6H202.18v8.43l8,12.6h-8V56.43M180.32,34.72h13v-13h-13v13m-130,20.63H83.61V47H50.34v8.35M487,0H0V61H487V0ZM121.09,53C108.6,53,98.82,42.9,98.82,30s9.57-22.78,22.27-22.78A21.93,21.93,0,0,1,137.16,14,23.07,23.07,0,0,1,143.44,30a24,24,0,0,1-4,13.33l-1.41,2,1.69,1.78,3.32,3.5-1.76,1.66L138.16,49l-1.83-1.9-2.12,1.57A21.86,21.86,0,0,1,121.09,53ZM67.19,38.67A15.73,15.73,0,1,1,82.92,23,15.74,15.74,0,0,1,67.19,38.67ZM22.87,31.18a16.51,16.51,0,0,1-6.32-1.39A10.45,10.45,0,0,1,10.1,19.63c0-8.06,6.58-12.41,12.77-12.41S33.63,10.58,35,15.7H32.54c-1.31-3.71-4.9-6-9.67-6-6.09,0-10.34,4.11-10.34,10C12.53,25,17,29,22.87,29a16.11,16.11,0,0,1,6.24,1.38c4.1,1.89,6.46,5.81,6.46,10.74,0,8.17-6.56,11.89-12.66,11.91C14.22,52.84,11.4,48,10.5,44.38h2.56c1.34,3.8,5,6.26,9.81,6.26,5.9,0,10.35-4.07,10.35-9.48,0-5.89-5.31-9.77-10.22-10h-.13ZM160.2,7.94h2.43v42h18.65v2.43H160.2V7.94ZM345.68,32.26a16.51,16.51,0,0,1-6.32-1.39,10.44,10.44,0,0,1-6.44-10.16c0-8.06,6.57-12.41,12.76-12.41s10.76,3.36,12.14,8.47h-2.47c-1.31-3.71-4.89-6-9.67-6-6.09,0-10.34,4.1-10.34,10,0,5.36,4.45,9.41,10.34,9.41a16.11,16.11,0,0,1,6.24,1.38c4.11,1.89,6.46,5.8,6.46,10.74,0,8.16-6.55,11.89-12.66,11.91-8.69-.23-11.51-5.1-12.4-8.69h2.56c1.33,3.8,5,6.26,9.8,6.26,5.9,0,10.35-4.07,10.35-9.48,0-5.9-5.3-9.77-10.22-10h-.13ZM417.81,9h13.78A20.71,20.71,0,0,1,439,10.67c4.36,1.95,6.48,5.24,6.48,10,0,5.61-3,9.29-8.89,10.94l-3.87,1.08,2.13,3.4,10.81,17.3h-2.79L430.61,33.81l-.88-1.41h-9.49v21h-2.43V30.05h10.45l-2.92-4.61-7.53-11.86V9ZM374.28,9h27.63v2.43h-25.2v18.6h21V32.4h-21V51h25.2v2.43H374.28V9ZM286.79,9h13.78a20.71,20.71,0,0,1,7.37,1.65c4.36,1.95,6.48,5.24,6.48,10,0,5.61-3,9.29-8.9,10.94l-3.86,1.08,2.13,3.4,10.81,17.3h-2.79L299.59,33.81l-.88-1.41h-9.49v21h-2.43V30.05h10.45l-2.92-4.61-7.53-11.86V9ZM205.18,9H219a20.49,20.49,0,0,1,7.33,1.65c4.34,1.95,6.45,5.24,6.45,10s-2.11,8.09-6.45,10A20.49,20.49,0,0,1,219,32.4H207.61v21h-2.43V30.05h10.45l-2.92-4.61-7.53-11.86V9ZM238,53.43l15.71-40.56,15.78,40.56h-2.63l-1.49-3.91-.74-1.93H242.78l-.72,2-1.44,3.88Zm-54.7-28.71h7v7h-7v-7ZM53.34,50H80.61v2.35H53.34V50Z"/><path class="cls-2" d="M463.71,35.13V50.29c0,6.23-5.94,6.23-5.94,6.23h-2.54V53h2.54a2.57,2.57,0,0,0,2.55-2.66V38.39h-3.65V35.13Z"/><path class="cls-1" d="M467.57,50.6H471a2.73,2.73,0,0,0,3,2.65,2.79,2.79,0,0,0,2.95-2.74,3.06,3.06,0,0,0-2.95-3,7.46,7.46,0,0,1-3-.7,5.74,5.74,0,0,1-3.3-5.47,6.29,6.29,0,0,1,6.34-6.52A6,6,0,0,1,480.17,41h-3.36a2.59,2.59,0,0,0-2.9-2.56,2.84,2.84,0,1,0,0,5.67,7.36,7.36,0,0,1,3,.7,6,6,0,0,1,3.31,5.71,6.08,6.08,0,0,1-6.32,6.31C470.4,56.73,467.62,54.59,467.57,50.6Z"/></g></g></svg>